{
  "accessors": [
    {
      "bufferView": 2,
      "componentType": 5126,
      "count": 441,
      "max": [
        -2.4280388355255127,
        -0.49010032415390015,
        3.5804803371429443
      ],
      "min": [
        -2.6377623081207275,
        -0.6998239159584045,
        3.5804803371429443
      ],
      "type": "VEC3"
    },
    {
      "bufferView": 2,
      "byteOffset": 5292,
      "componentType": 5126,
      "count": 441,
      "max": [
        0.0,
        -0.0,
        1.0
      ],
      "min": [
        0.0,
        -0.0,
        1.0
      ],
      "type": "VEC3"
    },
    {
      "bufferView": 1,
      "componentType": 5126,
      "count": 441,
      "max": [
        1.0,
        1.0
      ],
      "min": [
        0.0,
        0.0
      ],
      "type": "VEC2"
    },
    {
      "bufferView": 0,
      "componentType": 5125,
      "count": 2400,
      "type": "SCALAR"
    },
    {
      "bufferView": 2,
      "byteOffset": 10584,
      "componentType": 5126,
      "count": 19332,
      "max": [
        7.0625,
        1.75,
        3.5
      ],
      "min": [
        0.0,
        -1.75,
        0.125
      ],
      "type": "VEC3"
    },
    {
      "bufferView": 2,
      "byteOffset": 242568,
      "componentType": 5126,
      "count": 19332,
      "max": [
        1.0,
        1.0,
        1.0
      ],
      "min": [
        -1.0,
        -1.0,
        -1.0
      ],
      "type": "VEC3"
    },
    {
      "bufferView": 1,
      "byteOffset": 3528,
      "componentType": 5126,
      "count": 19332,
      "max": [
        0.9902340173721313,
        0.5
      ],
      "min": [
        0.041016001254320145,
        0.5
      ],
      "type": "VEC2"
    },
    {
      "bufferView": 0,
      "byteOffset": 9600,
      "componentType": 5125,
      "count": 37656,
      "type": "SCALAR"
    },
    {
      "bufferView": 2,
      "byteOffset": 474552,
      "componentType": 5126,
      "count": 2406,
      "max": [
        4.125,
        0.875,
        0.875
      ],
      "min": [
        -4.125,
        -0.875,
        -0.0625
      ],
      "type": "VEC3"
    },
    {
      "bufferView": 2,
      "byteOffset": 503424,
      "componentType": 5126,
      "count": 2406,
      "max": [
        1.0,
        1.0,
        1.0
      ],
      "min": [
        -1.0,
        -1.0,
        -1.0
      ],
      "type": "VEC3"
    },
    {
      "bufferView": 1,
      "byteOffset": 158184,
      "componentType": 5126,
      "count": 2406,
      "max": [
        0.9902340173721313,
        0.5
      ],
      "min": [
        0.8652340173721313,
        0.5
      ],
      "type": "VEC2"
    },
    {
      "bufferView": 0,
      "byteOffset": 160224,
      "componentType": 5125,
      "count": 4740,
      "type": "SCALAR"
    },
    {
      "bufferView": 2,
      "byteOffset": 532296,
      "componentType": 5126,
      "count": 18250,
      "max": [
        0.0,
        1.75,
        3.5625
      ],
      "min": [
        -7.0625,
        -1.75,
        0.125
      ],
      "type": "VEC3"
    },
    {
      "bufferView": 2,
      "byteOffset": 751296,
      "componentType": 5126,
      "count": 18250,
      "max": [
        1.0,
        1.0,
        1.0
      ],
      "min": [
        -1.0,
        -1.0,
        -1.0
      ],
      "type": "VEC3"
    },
    {
      "bufferView": 1,
      "byteOffset": 177432,
      "componentType": 5126,
      "count": 18250,
      "max": [
        0.9902340173721313,
        0.5
      ],
      "min": [
        0.041016001254320145,
        0.5
      ],
      "type": "VEC2"
    },
    {
      "bufferView": 0,
      "byteOffset": 179184,
      "componentType": 5125,
      "count": 35910,
      "type": "SCALAR"
    }
  ],
  "asset": {
    "extras": {
      "author": "voxellation (https://sketchfab.com/continentialvoxels)",
      "license": "CC-BY-4.0 (http://creativecommons.org/licenses/by/4.0/)",
      "source": "https://sketchfab.com/3d-models/cd810-motor-train-121922992c4c44c9a121a40c82c79382",
      "title": "CD810 motor train"
    },
    "generator": "Sketchfab-12.68.0",
    "version": "2.0"
  },
  "bufferViews": [
    {
      "buffer": 0,
      "byteLength": 322824,
      "name": "floatBufferViews",
      "target": 34963
    },
    {
      "buffer": 0,
      "byteLength": 323432,
      "byteOffset": 322824,
      "byteStride": 8,
      "name": "floatBufferViews",
      "target": 34962
    },
    {
      "buffer": 0,
      "byteLength": 970296,
      "byteOffset": 646256,
      "byteStride": 12,
      "name": "floatBufferViews",
      "target": 34962
    }
  ],
  "buffers": [
    {
      "byteLength": 1616552,
      "uri": "scene.bin"
    }
  ],
  "images": [
    {
      "uri": "textures/palette_baseColor.png"
    }
  ],
  "materials": [
    {
      "doubleSided": true,
      "name": "default",
      "pbrMetallicRoughness": {
        "metallicFactor": 0.0
      }
    },
    {
      "doubleSided": true,
      "name": "palette",
      "pbrMetallicRoughness": {
        "baseColorTexture": {
          "index": 0
        },
        "metallicFactor": 0.0
      }
    }
  ],
  "meshes": [
    {
      "name": "Object_0",
      "primitives": [
        {
          "attributes": {
            "NORMAL": 1,
            "POSITION": 0,
            "TEXCOORD_0": 2
          },
          "indices": 3,
          "material": 0,
          "mode": 4
        }
      ]
    },
    {
      "name": "Object_1",
      "primitives": [
        {
          "attributes": {
            "NORMAL": 5,
            "POSITION": 4,
            "TEXCOORD_0": 6
          },
          "indices": 7,
          "material": 1,
          "mode": 4
        }
      ]
    },
    {
      "name": "Object_2",
      "primitives": [
        {
          "attributes": {
            "NORMAL": 9,
            "POSITION": 8,
            "TEXCOORD_0": 10
          },
          "indices": 11,
          "material": 1,
          "mode": 4
        }
      ]
    },
    {
      "name": "Object_3",
      "primitives": [
        {
          "attributes": {
            "NORMAL": 13,
            "POSITION": 12,
            "TEXCOORD_0": 14
          },
          "indices": 15,
          "material": 1,
          "mode": 4
        }
      ]
    }
  ],
  "nodes": [
    {
      "children": [
        1
      ],
      "matrix": [
        1.0,
        0.0,
        0.0,
        0.0,
        0.0,
        2.220446049250313e-16,
        -1.0,
        0.0,
        0.0,
        1.0,
        2.220446049250313e-16,
        0.0,
        0.0,
        0.0,
        0.0,
        1.0
      ],
      "name": "Sketchfab_model"
    },
    {
      "children": [
        2,
        3,
        4,
        5
      ],
      "name": "cd810_r.obj.cleaner.materialmerger.gles"
    },
    {
      "mesh": 0,
      "name": "Object_2"
    },
    {
      "mesh": 1,
      "name": "Object_3"
    },
    {
      "mesh": 2,
      "name": "Object_4"
    },
    {
      "mesh": 3,
      "name": "Object_5"
    }
  ],
  "samplers": [
    {
      "magFilter": 9729,
      "minFilter": 9987,
      "wrapS": 10497,
      "wrapT": 10497
    }
  ],
  "scene": 0,
  "scenes": [
    {
      "name": "Sketchfab_Scene",
      "nodes": [
        0
      ]
    }
  ],
  "textures": [
    {
      "sampler": 0,
      "source": 0
    }
  ]
}
