{
  "accessors": [
    {
      "bufferView": 2,
      "componentType": 5126,
      "count": 2669,
      "max": [
        3.1480846405029297,
        3.172325611114502,
        4.3533244132995605
      ],
      "min": [
        -3.1786904335021973,
        -3.154449462890625,
        -4.546781539916992
      ],
      "type": "VEC3"
    },
    {
      "bufferView": 2,
      "byteOffset": 32028,
      "componentType": 5126,
      "count": 2669,
      "max": [
        1.0,
        1.0,
        1.0
      ],
      "min": [
        -1.0,
        -1.0,
        -1.0
      ],
      "type": "VEC3"
    },
    {
      "bufferView": 1,
      "componentType": 5126,
      "count": 2669,
      "max": [
        0.6250000596046448,
        1.0
      ],
      "min": [
        0.39693397283554077,
        0.0
      ],
      "type": "VEC2"
    },
    {
      "bufferView": 0,
      "componentType": 5125,
      "count": 7182,
      "type": "SCALAR"
    },
    {
      "bufferView": 2,
      "byteOffset": 64056,
      "componentType": 5126,
      "count": 1706,
      "max": [
        3.228944778442383,
        3.253185749053955,
        4.993266582489014
      ],
      "min": [
        -3.2595505714416504,
        -3.235309600830078,
        -5.6466755867004395
      ],
      "type": "VEC3"
    },
    {
      "bufferView": 2,
      "byteOffset": 84528,
      "componentType": 5126,
      "count": 1706,
      "max": [
        1.0,
        1.0,
        1.0
      ],
      "min": [
        -1.0,
        -1.0,
        -1.0
      ],
      "type": "VEC3"
    },
    {
      "bufferView": 1,
      "byteOffset": 21352,
      "componentType": 5126,
      "count": 1706,
      "max": [
        0.875,
        1.0
      ],
      "min": [
        0.1249999925494194,
        0.0
      ],
      "type": "VEC2"
    },
    {
      "bufferView": 0,
      "byteOffset": 28728,
      "componentType": 5125,
      "count": 5328,
      "type": "SCALAR"
    },
    {
      "bufferView": 2,
      "byteOffset": 105000,
      "componentType": 5126,
      "count": 3746,
      "max": [
        3.0459280014038086,
        3.070168972015381,
        3.889556407928467
      ],
      "min": [
        -3.076533794403076,
        -3.052292823791504,
        -4.546781539916992
      ],
      "type": "VEC3"
    },
    {
      "bufferView": 2,
      "byteOffset": 149952,
      "componentType": 5126,
      "count": 3746,
      "max": [
        1.0,
        1.0,
        1.0
      ],
      "min": [
        -1.0,
        -1.0,
        -1.0
      ],
      "type": "VEC3"
    },
    {
      "bufferView": 1,
      "byteOffset": 35000,
      "componentType": 5126,
      "count": 3746,
      "max": [
        0.6134058237075806,
        0.9843751192092896
      ],
      "min": [
        0.39693397283554077,
        0.015625
      ],
      "type": "VEC2"
    },
    {
      "bufferView": 0,
      "byteOffset": 50040,
      "componentType": 5125,
      "count": 9222,
      "type": "SCALAR"
    },
    {
      "bufferView": 2,
      "byteOffset": 194904,
      "componentType": 5126,
      "count": 437,
      "max": [
        2.796988010406494,
        2.8212289810180664,
        3.795422077178955
      ],
      "min": [
        -2.8275938034057617,
        -2.8033528327941895,
        -2.45259428024292
      ],
      "type": "VEC3"
    },
    {
      "bufferView": 2,
      "byteOffset": 200148,
      "componentType": 5126,
      "count": 437,
      "max": [
        1.0,
        1.0,
        2.0252517174412787e-07
      ],
      "min": [
        -1.0,
        -1.0,
        -1.4003158810282912e-07
      ],
      "type": "VEC3"
    },
    {
      "bufferView": 1,
      "byteOffset": 64968,
      "componentType": 5126,
      "count": 437,
      "max": [
        0.610813319683075,
        0.9804527759552002
      ],
      "min": [
        0.45190122723579407,
        0.01954726316034794
      ],
      "type": "VEC2"
    },
    {
      "bufferView": 0,
      "byteOffset": 86928,
      "componentType": 5125,
      "count": 1104,
      "type": "SCALAR"
    },
    {
      "bufferView": 2,
      "byteOffset": 205392,
      "componentType": 5126,
      "count": 43,
      "max": [
        -2.698549747467041,
        2.5834920406341553,
        -2.3298676013946533
      ],
      "min": [
        -2.868351697921753,
        1.1843839883804321,
        -4.496335506439209
      ],
      "type": "VEC3"
    },
    {
      "bufferView": 2,
      "byteOffset": 205908,
      "componentType": 5126,
      "count": 43,
      "max": [
        0.0,
        1.0,
        0.0
      ],
      "min": [
        -1.0,
        -1.0,
        0.0
      ],
      "type": "VEC3"
    },
    {
      "bufferView": 1,
      "byteOffset": 68464,
      "componentType": 5126,
      "count": 43,
      "max": [
        0.4548283517360687,
        0.23227310180664063
      ],
      "min": [
        0.39827078580856323,
        0.17397691309452057
      ],
      "type": "VEC2"
    },
    {
      "bufferView": 0,
      "byteOffset": 91344,
      "componentType": 5125,
      "count": 126,
      "type": "SCALAR"
    },
    {
      "bufferView": 2,
      "byteOffset": 206424,
      "componentType": 5126,
      "count": 72,
      "max": [
        2.965810537338257,
        2.990051507949829,
        2.456624746322632
      ],
      "min": [
        -2.9964163303375244,
        -2.972175359725952,
        -2.0312952995300293
      ],
      "type": "VEC3"
    },
    {
      "bufferView": 2,
      "byteOffset": 207288,
      "componentType": 5126,
      "count": 72,
      "max": [
        1.0,
        1.0,
        1.0
      ],
      "min": [
        -1.0,
        -1.0,
        -1.0
      ],
      "type": "VEC3"
    },
    {
      "bufferView": 1,
      "byteOffset": 68808,
      "componentType": 5126,
      "count": 72,
      "max": [
        0.875,
        1.0
      ],
      "min": [
        0.125,
        0.0
      ],
      "type": "VEC2"
    },
    {
      "bufferView": 0,
      "byteOffset": 91848,
      "componentType": 5125,
      "count": 108,
      "type": "SCALAR"
    },
    {
      "bufferView": 2,
      "byteOffset": 208152,
      "componentType": 5126,
      "count": 60,
      "max": [
        0.7270503640174866,
        1.0,
        0.5799999833106995
      ],
      "min": [
        -0.7551776170730591,
        -1.0,
        -0.5200000405311584
      ],
      "type": "VEC3"
    },
    {
      "bufferView": 2,
      "byteOffset": 208872,
      "componentType": 5126,
      "count": 60,
      "max": [
        1.0,
        1.0,
        1.0
      ],
      "min": [
        -1.0,
        -1.0,
        -1.0
      ],
      "type": "VEC3"
    },
    {
      "bufferView": 1,
      "byteOffset": 69384,
      "componentType": 5126,
      "count": 60,
      "max": [
        0.875,
        1.0
      ],
      "min": [
        0.125,
        0.0
      ],
      "type": "VEC2"
    },
    {
      "bufferView": 0,
      "byteOffset": 92280,
      "componentType": 5125,
      "count": 102,
      "type": "SCALAR"
    },
    {
      "bufferView": 2,
      "byteOffset": 209592,
      "componentType": 5126,
      "count": 350,
      "max": [
        1.859115719795227,
        2.4703171253204346,
        0.9151594042778015
      ],
      "min": [
        -1.0049123764038086,
        -4.916414737701416,
        -1.0848426818847656
      ],
      "type": "VEC3"
    },
    {
      "bufferView": 2,
      "byteOffset": 213792,
      "componentType": 5126,
      "count": 350,
      "max": [
        1.0,
        1.0,
        1.0
      ],
      "min": [
        -1.0,
        -1.0,
        -1.0
      ],
      "type": "VEC3"
    },
    {
      "bufferView": 1,
      "byteOffset": 69864,
      "componentType": 5126,
      "count": 350,
      "max": [
        0.875,
        1.0
      ],
      "min": [
        0.125,
        0.0
      ],
      "type": "VEC2"
    },
    {
      "bufferView": 0,
      "byteOffset": 92688,
      "componentType": 5125,
      "count": 540,
      "type": "SCALAR"
    },
    {
      "bufferView": 2,
      "byteOffset": 217992,
      "componentType": 5126,
      "count": 19200,
      "max": [
        18.677927017211914,
        18.711456298828125,
        51.235591888427734
      ],
      "min": [
        -18.677913665771484,
        -18.711698532104492,
        -51.262821197509766
      ],
      "type": "VEC3"
    },
    {
      "bufferView": 2,
      "byteOffset": 448392,
      "componentType": 5126,
      "count": 19200,
      "max": [
        1.0,
        1.0,
        1.0
      ],
      "min": [
        -1.0,
        -1.0,
        -1.0
      ],
      "type": "VEC3"
    },
    {
      "bufferView": 1,
      "byteOffset": 72664,
      "componentType": 5126,
      "count": 19200,
      "max": [
        0.8582133054733276,
        0.9832133650779724
      ],
      "min": [
        0.125,
        0.0
      ],
      "type": "VEC2"
    },
    {
      "bufferView": 0,
      "byteOffset": 94848,
      "componentType": 5125,
      "count": 26400,
      "type": "SCALAR"
    },
    {
      "bufferView": 2,
      "byteOffset": 678792,
      "componentType": 5126,
      "count": 2302,
      "max": [
        90.43195343017578,
        18.493478775024414,
        32.41547393798828
      ],
      "min": [
        -56.02465057373047,
        -11.061330795288086,
        -27.186870574951172
      ],
      "type": "VEC3"
    },
    {
      "bufferView": 2,
      "byteOffset": 706416,
      "componentType": 5126,
      "count": 2302,
      "max": [
        1.0,
        1.0,
        1.0
      ],
      "min": [
        -1.0,
        -1.0,
        -1.0
      ],
      "type": "VEC3"
    },
    {
      "bufferView": 1,
      "byteOffset": 226264,
      "componentType": 5126,
      "count": 2302,
      "max": [
        1.0,
        1.0
      ],
      "min": [
        0.0,
        0.0
      ],
      "type": "VEC2"
    },
    {
      "bufferView": 0,
      "byteOffset": 200448,
      "componentType": 5125,
      "count": 3816,
      "type": "SCALAR"
    }
  ],
  "asset": {
    "extras": {
      "author": "Dandushik (https://sketchfab.com/danieljerbi910)",
      "license": "CC-BY-4.0 (http://creativecommons.org/licenses/by/4.0/)",
      "source": "https://sketchfab.com/3d-models/low-poly-buidling-6c29878b4572415eab6b2b59225164b3",
      "title": "Low Poly Buidling"
    },
    "generator": "Sketchfab-15.30.0",
    "version": "2.0"
  },
  "bufferViews": [
    {
      "buffer": 0,
      "byteLength": 215712,
      "name": "floatBufferViews",
      "target": 34963
    },
    {
      "buffer": 0,
      "byteLength": 244680,
      "byteOffset": 215712,
      "byteStride": 8,
      "name": "floatBufferViews",
      "target": 34962
    },
    {
      "buffer": 0,
      "byteLength": 734040,
      "byteOffset": 460392,
      "byteStride": 12,
      "name": "floatBufferViews",
      "target": 34962
    }
  ],
  "buffers": [
    {
      "byteLength": 1194432,
      "uri": "scene.bin"
    }
  ],
  "materials": [
    {
      "doubleSided": true,
      "name": "Material.001",
      "pbrMetallicRoughness": {
        "baseColorFactor": [
          0.11558,
          0.110301,
          0.109095,
          1.0
        ],
        "metallicFactor": 0.0,
        "roughnessFactor": 0.9751044594081419
      }
    },
    {
      "doubleSided": true,
      "name": "Material.004",
      "pbrMetallicRoughness": {
        "baseColorFactor": [
          0.043212,
          0.043212,
          0.043212,
          1.0
        ],
        "metallicFactor": 0.0,
        "roughnessFactor": 0.990337503055628
      }
    },
    {
      "doubleSided": true,
      "name": "Material.002",
      "pbrMetallicRoughness": {
        "baseColorFactor": [
          0.0535909,
          0.0535909,
          0.0535909,
          1.0
        ],
        "metallicFactor": 0.0,
        "roughnessFactor": 0.9880167104624606
      }
    },
    {
      "doubleSided": true,
      "name": "Material.003",
      "pbrMetallicRoughness": {
        "baseColorFactor": [
          0.0743293,
          0.23009,
          0.404358,
          1.0
        ],
        "metallicFactor": 0.0
      }
    },
    {
      "doubleSided": true,
      "name": "Material.007",
      "pbrMetallicRoughness": {
        "baseColorFactor": [
          0.11558,
          0.043299,
          0.0128656,
          1.0
        ],
        "metallicFactor": 0.0,
        "roughnessFactor": 0.9873732261970096
      }
    },
    {
      "doubleSided": true,
      "name": "Material.006",
      "pbrMetallicRoughness": {
        "baseColorFactor": [
          0.8,
          0.8,
          0.8,
          1.0
        ],
        "metallicFactor": 0.0,
        "roughnessFactor": 0.8211145618000169
      }
    },
    {
      "doubleSided": true,
      "name": "Material.008",
      "pbrMetallicRoughness": {
        "baseColorFactor": [
          0.269736,
          0.269736,
          0.269736,
          1.0
        ],
        "metallicFactor": 0.0,
        "roughnessFactor": 0.9396851968021117
      }
    },
    {
      "doubleSided": true,
      "name": "Material.005",
      "pbrMetallicRoughness": {
        "baseColorFactor": [
          0.0558243,
          0.0558243,
          0.0558243,
          1.0
        ],
        "metallicFactor": 0.0,
        "roughnessFactor": 0.9875173070403659
      }
    }
  ],
  "meshes": [
    {
      "name": "Building_Material.001_0",
      "primitives": [
        {
          "attributes": {
            "NORMAL": 1,
            "POSITION": 0,
            "TEXCOORD_0": 2
          },
          "indices": 3,
          "material": 0,
          "mode": 4
        }
      ]
    },
    {
      "name": "Building_Material.004_0",
      "primitives": [
        {
          "attributes": {
            "NORMAL": 5,
            "POSITION": 4,
            "TEXCOORD_0": 6
          },
          "indices": 7,
          "material": 1,
          "mode": 4
        }
      ]
    },
    {
      "name": "Building_Material.002_0",
      "primitives": [
        {
          "attributes": {
            "NORMAL": 9,
            "POSITION": 8,
            "TEXCOORD_0": 10
          },
          "indices": 11,
          "material": 2,
          "mode": 4
        }
      ]
    },
    {
      "name": "Building_Material.003_0",
      "primitives": [
        {
          "attributes": {
            "NORMAL": 13,
            "POSITION": 12,
            "TEXCOORD_0": 14
          },
          "indices": 15,
          "material": 3,
          "mode": 4
        }
      ]
    },
    {
      "name": "Building_Material.007_0",
      "primitives": [
        {
          "attributes": {
            "NORMAL": 17,
            "POSITION": 16,
            "TEXCOORD_0": 18
          },
          "indices": 19,
          "material": 4,
          "mode": 4
        }
      ]
    },
    {
      "name": "Building_Material.006_0",
      "primitives": [
        {
          "attributes": {
            "NORMAL": 21,
            "POSITION": 20,
            "TEXCOORD_0": 22
          },
          "indices": 23,
          "material": 5,
          "mode": 4
        }
      ]
    },
    {
      "name": "Srairs_Material.002_0",
      "primitives": [
        {
          "attributes": {
            "NORMAL": 25,
            "POSITION": 24,
            "TEXCOORD_0": 26
          },
          "indices": 27,
          "material": 2,
          "mode": 4
        }
      ]
    },
    {
      "name": "Roof_Material.008_0",
      "primitives": [
        {
          "attributes": {
            "NORMAL": 29,
            "POSITION": 28,
            "TEXCOORD_0": 30
          },
          "indices": 31,
          "material": 6,
          "mode": 4
        }
      ]
    },
    {
      "name": "Bricks_Material.005_0",
      "primitives": [
        {
          "attributes": {
            "NORMAL": 33,
            "POSITION": 32,
            "TEXCOORD_0": 34
          },
          "indices": 35,
          "material": 7,
          "mode": 4
        }
      ]
    },
    {
      "name": "StairCase_Material.008_0",
      "primitives": [
        {
          "attributes": {
            "NORMAL": 37,
            "POSITION": 36,
            "TEXCOORD_0": 38
          },
          "indices": 39,
          "material": 6,
          "mode": 4
        }
      ]
    }
  ],
  "nodes": [
    {
      "children": [
        1
      ],
      "matrix": [
        1.0,
        0.0,
        0.0,
        0.0,
        0.0,
        2.220446049250313e-16,
        -1.0,
        0.0,
        0.0,
        1.0,
        2.220446049250313e-16,
        0.0,
        0.0,
        0.0,
        0.0,
        1.0
      ],
      "name": "Sketchfab_model"
    },
    {
      "children": [
        2
      ],
      "matrix": [
        0.009999999776482582,
        0.0,
        0.0,
        0.0,
        0.0,
        0.0,
        0.009999999776482582,
        0.0,
        0.0,
        -0.009999999776482582,
        0.0,
        0.0,
        0.0,
        0.0,
        0.0,
        1.0
      ],
      "name": "ed8c9edb1f3641abaa0dfa6055955af1.fbx"
    },
    {
      "children": [
        3,
        10,
        12,
        14,
        16
      ],
      "name": "RootNode"
    },
    {
      "children": [
        4,
        5,
        6,
        7,
        8,
        9
      ],
      "matrix": [
        100.0,
        0.0,
        0.0,
        0.0,
        0.0,
        -1.629206793918314e-05,
        -99.99999999999868,
        0.0,
        0.0,
        99.99999999999868,
        -1.629206793918314e-05,
        0.0,
        1.5302969217300415,
        564.6675415039063,
        0.893803596496582,
        1.0
      ],
      "name": "Building"
    },
    {
      "mesh": 0,
      "name": "Building_Material.001_0"
    },
    {
      "mesh": 1,
      "name": "Building_Material.004_0"
    },
    {
      "mesh": 2,
      "name": "Building_Material.002_0"
    },
    {
      "mesh": 3,
      "name": "Building_Material.003_0"
    },
    {
      "mesh": 4,
      "name": "Building_Material.007_0"
    },
    {
      "mesh": 5,
      "name": "Building_Material.006_0"
    },
    {
      "children": [
        11
      ],
      "matrix": [
        100.0,
        0.0,
        0.0,
        0.0,
        -0.0,
        -1.629206793918314e-05,
        -99.99999999999868,
        0.0,
        0.0,
        99.99999999999868,
        -1.629206793918314e-05,
        0.0,
        -372.70501708984375,
        52.0,
        -189.00001525878906,
        1.0
      ],
      "name": "Srairs"
    },
    {
      "mesh": 6,
      "name": "Srairs_Material.002_0"
    },
    {
      "children": [
        13
      ],
      "matrix": [
        43.788143157958984,
        0.0,
        0.0,
        0.0,
        0.0,
        -7.133994032601452e-06,
        -43.78814315795841,
        0.0,
        0.0,
        43.78814315795841,
        -7.133994032601452e-06,
        0.0,
        150.21844482421875,
        1075.4808349609375,
        16.344987869262695,
        1.0
      ],
      "name": "Roof"
    },
    {
      "mesh": 7,
      "name": "Roof_Material.008_0"
    },
    {
      "children": [
        15
      ],
      "matrix": [
        -16.501947402952847,
        2.0209053580524618e-15,
        6.426095579672078e-06,
        0.0,
        6.426095579672059e-06,
        1.2458623718755703e-06,
        16.5019474029528,
        0.0,
        -2.6411564611776376e-13,
        9.021112442016575,
        -6.810750424175767e-07,
        0.0,
        2.100396156311035,
        573.465087890625,
        -3.350830078125,
        1.0
      ],
      "name": "Bricks"
    },
    {
      "mesh": 8,
      "name": "Bricks_Material.005_0"
    },
    {
      "children": [
        17
      ],
      "matrix": [
        -0.04596108243765623,
        -5.420954418860905,
        -3.217530106767574e-07,
        0.0,
        -8.804577984219607e-07,
        3.2922948741323454e-07,
        -5.421149730682291,
        0.0,
        5.420954418860844,
        -0.045961082437603565,
        -8.832173183172454e-07,
        0.0,
        -14.158285140991211,
        523.4277954101563,
        381.8477783203125,
        1.0
      ],
      "name": "StairCase"
    },
    {
      "mesh": 9,
      "name": "StairCase_Material.008_0"
    }
  ],
  "scene": 0,
  "scenes": [
    {
      "name": "Sketchfab_Scene",
      "nodes": [
        0
      ]
    }
  ]
}
