{
  "accessors": [
    {
      "bufferView": 1,
      "componentType": 5126,
      "count": 324,
      "max": [
        4.421270370483398,
        15.053207397460938,
        4.44290828704834
      ],
      "min": [
        -4.384230613708496,
        -8.890783309936523,
        -4.35157585144043
      ],
      "type": "VEC3"
    },
    {
      "bufferView": 1,
      "byteOffset": 3888,
      "componentType": 5126,
      "count": 324,
      "max": [
        0.9848339557647705,
        0.9993370175361633,
        0.9749975800514221
      ],
      "min": [
        -0.9993364810943604,
        -0.36736997961997986,
        -0.9991374611854553
      ],
      "type": "VEC3"
    },
    {
      "bufferView": 0,
      "componentType": 5125,
      "count": 324,
      "type": "SCALAR"
    },
    {
      "bufferView": 1,
      "byteOffset": 7776,
      "componentType": 5126,
      "count": 230,
      "max": [
        1.0588144063949585,
        -2.4840567111968994,
        1.283332109451294
      ],
      "min": [
        -0.624341607093811,
        -15.072629928588867,
        -0.46717867255210876
      ],
      "type": "VEC3"
    },
    {
      "bufferView": 1,
      "byteOffset": 10536,
      "componentType": 5126,
      "count": 230,
      "max": [
        0.9731332063674927,
        0.9998360276222229,
        0.9961792826652527
      ],
      "min": [
        -0.9730978608131409,
        -0.9998360276222229,
        -0.9989669919013977
      ],
      "type": "VEC3"
    },
    {
      "bufferView": 0,
      "byteOffset": 1296,
      "componentType": 5125,
      "count": 468,
      "type": "SCALAR"
    }
  ],
  "asset": {
    "extras": {
      "author": "FLAREMEDIA (https://sketchfab.com/flaremedia)",
      "license": "CC-BY-4.0 (http://creativecommons.org/licenses/by/4.0/)",
      "source": "https://sketchfab.com/3d-models/lowpoly-tree-3-6c18d8f196724f6f8438f53552af7a5f",
      "title": "Lowpoly  Tree 3"
    },
    "generator": "Sketchfab-12.68.0",
    "version": "2.0"
  },
  "bufferViews": [
    {
      "buffer": 0,
      "byteLength": 3168,
      "name": "floatBufferViews",
      "target": 34963
    },
    {
      "buffer": 0,
      "byteLength": 13296,
      "byteOffset": 3168,
      "byteStride": 12,
      "name": "floatBufferViews",
      "target": 34962
    }
  ],
  "buffers": [
    {
      "byteLength": 16464,
      "uri": "scene.bin"
    }
  ],
  "materials": [
    {
      "doubleSided": true,
      "name": "Tree_1",
      "pbrMetallicRoughness": {
        "baseColorFactor": [
          0.333333,
          0.8,
          0.0,
          1.0
        ],
        "metallicFactor": 0.0,
        "roughnessFactor": 0.6
      }
    },
    {
      "doubleSided": true,
      "name": "Mat.3",
      "pbrMetallicRoughness": {
        "baseColorFactor": [
          0.84,
          0.58464,
          0.2016,
          1.0
        ],
        "metallicFactor": 0.0,
        "roughnessFactor": 0.6
      }
    }
  ],
  "meshes": [
    {
      "name": "Tree_1_1_Tree 1_0",
      "primitives": [
        {
          "attributes": {
            "NORMAL": 1,
            "POSITION": 0
          },
          "indices": 2,
          "material": 0,
          "mode": 4
        }
      ]
    },
    {
      "name": "Tree_1_1_Mat.3_0",
      "primitives": [
        {
          "attributes": {
            "NORMAL": 4,
            "POSITION": 3
          },
          "indices": 5,
          "material": 1,
          "mode": 4
        }
      ]
    }
  ],
  "nodes": [
    {
      "children": [
        1
      ],
      "matrix": [
        1.0,
        0.0,
        0.0,
        0.0,
        0.0,
        2.220446049250313e-16,
        -1.0,
        0.0,
        0.0,
        1.0,
        2.220446049250313e-16,
        0.0,
        0.0,
        0.0,
        0.0,
        1.0
      ],
      "name": "Sketchfab_model"
    },
    {
      "children": [
        2
      ],
      "matrix": [
        1.0,
        0.0,
        0.0,
        0.0,
        0.0,
        0.0,
        1.0,
        0.0,
        0.0,
        -1.0,
        0.0,
        0.0,
        0.0,
        0.0,
        0.0,
        1.0
      ],
      "name": "486ba6003c354f5f9ccea0b20b4887e6.fbx"
    },
    {
      "children": [
        3
      ],
      "name": "RootNode"
    },
    {
      "children": [
        4,
        5
      ],
      "name": "Tree_1_1"
    },
    {
      "mesh": 0,
      "name": "Tree_1_1_Tree 1_0"
    },
    {
      "mesh": 1,
      "name": "Tree_1_1_Mat.3_0"
    }
  ],
  "scene": 0,
  "scenes": [
    {
      "name": "Sketchfab_Scene",
      "nodes": [
        0
      ]
    }
  ]
}
