{
  "accessors": [
    {
      "bufferView": 2,
      "componentType": 5126,
      "count": 2450,
      "max": [
        100.0,
        194.48602294921875,
        135.19998168945313
      ],
      "min": [
        -100.0,
        -150.00001525878906,
        -100.0
      ],
      "type": "VEC3"
    },
    {
      "bufferView": 2,
      "byteOffset": 29400,
      "componentType": 5126,
      "count": 2450,
      "max": [
        1.0,
        1.0,
        1.0
      ],
      "min": [
        -1.0,
        -1.0,
        -1.0
      ],
      "type": "VEC3"
    },
    {
      "bufferView": 1,
      "componentType": 5126,
      "count": 2450,
      "max": [
        1.0003753900527954,
        0.8996620178222656
      ],
      "min": [
        -0.0005101289134472609,
        0.03482484817504883
      ],
      "type": "VEC2"
    },
    {
      "bufferView": 0,
      "componentType": 5125,
      "count": 5118,
      "type": "SCALAR"
    },
    {
      "bufferView": 2,
      "byteOffset": 58800,
      "componentType": 5126,
      "count": 60,
      "max": [
        100.0,
        74.88679504394531,
        86.602294921875
      ],
      "min": [
        -100.000244140625,
        -75.00000762939453,
        -303.4736328125
      ],
      "type": "VEC3"
    },
    {
      "bufferView": 2,
      "byteOffset": 59520,
      "componentType": 5126,
      "count": 60,
      "max": [
        0.866024374961853,
        0.9999433159828186,
        1.0
      ],
      "min": [
        -0.866024374961853,
        -0.9999207258224487,
        -1.0
      ],
      "type": "VEC3"
    },
    {
      "bufferView": 1,
      "byteOffset": 19600,
      "componentType": 5126,
      "count": 60,
      "max": [
        0.9861919283866882,
        0.9899174571037292
      ],
      "min": [
        0.064564049243927,
        0.9553609490394592
      ],
      "type": "VEC2"
    },
    {
      "bufferView": 0,
      "byteOffset": 20472,
      "componentType": 5125,
      "count": 144,
      "type": "SCALAR"
    },
    {
      "bufferView": 2,
      "byteOffset": 60240,
      "componentType": 5126,
      "count": 32,
      "max": [
        -20.23075294494629,
        0.0,
        47.84617233276367
      ],
      "min": [
        -46.178802490234375,
        0.0,
        -23.012462615966797
      ],
      "type": "VEC3"
    },
    {
      "bufferView": 2,
      "byteOffset": 60624,
      "componentType": 5126,
      "count": 32,
      "max": [
        0.0,
        1.0,
        0.0
      ],
      "min": [
        0.0,
        1.0,
        0.0
      ],
      "type": "VEC3"
    },
    {
      "bufferView": 1,
      "byteOffset": 20080,
      "componentType": 5126,
      "count": 32,
      "max": [
        0.2976924777030945,
        0.7301245927810669
      ],
      "min": [
        0.038211971521377563,
        0.021538250148296356
      ],
      "type": "VEC2"
    },
    {
      "bufferView": 0,
      "byteOffset": 21048,
      "componentType": 5125,
      "count": 90,
      "type": "SCALAR"
    },
    {
      "bufferView": 2,
      "byteOffset": 61008,
      "componentType": 5126,
      "count": 32,
      "max": [
        -20.23075294494629,
        0.0,
        47.84617233276367
      ],
      "min": [
        -46.178802490234375,
        0.0,
        -23.012462615966797
      ],
      "type": "VEC3"
    },
    {
      "bufferView": 2,
      "byteOffset": 61392,
      "componentType": 5126,
      "count": 32,
      "max": [
        0.0,
        1.0,
        0.0
      ],
      "min": [
        0.0,
        1.0,
        0.0
      ],
      "type": "VEC3"
    },
    {
      "bufferView": 1,
      "byteOffset": 20336,
      "componentType": 5126,
      "count": 32,
      "max": [
        0.2976924777030945,
        0.7301245927810669
      ],
      "min": [
        0.038211971521377563,
        0.021538250148296356
      ],
      "type": "VEC2"
    },
    {
      "bufferView": 0,
      "byteOffset": 21408,
      "componentType": 5125,
      "count": 90,
      "type": "SCALAR"
    },
    {
      "bufferView": 2,
      "byteOffset": 61776,
      "componentType": 5126,
      "count": 32,
      "max": [
        -20.23075294494629,
        0.0,
        47.84617233276367
      ],
      "min": [
        -46.178802490234375,
        0.0,
        -23.012462615966797
      ],
      "type": "VEC3"
    },
    {
      "bufferView": 2,
      "byteOffset": 62160,
      "componentType": 5126,
      "count": 32,
      "max": [
        0.0,
        1.0,
        0.0
      ],
      "min": [
        0.0,
        1.0,
        0.0
      ],
      "type": "VEC3"
    },
    {
      "bufferView": 1,
      "byteOffset": 20592,
      "componentType": 5126,
      "count": 32,
      "max": [
        0.2976924777030945,
        0.7301245927810669
      ],
      "min": [
        0.038211971521377563,
        0.021538250148296356
      ],
      "type": "VEC2"
    },
    {
      "bufferView": 0,
      "byteOffset": 21768,
      "componentType": 5125,
      "count": 90,
      "type": "SCALAR"
    }
  ],
  "asset": {
    "extras": {
      "author": "lauramakesgames (https://sketchfab.com/lauramakesgames)",
      "license": "CC-BY-SA-4.0 (http://creativecommons.org/licenses/by-sa/4.0/)",
      "source": "https://sketchfab.com/3d-models/storefront-lowpoly-house-16daa5d2e1c2461db9c025d17be5fe38",
      "title": "Storefront lowpoly house"
    },
    "generator": "Sketchfab-13.31.0",
    "version": "2.0"
  },
  "bufferViews": [
    {
      "buffer": 0,
      "byteLength": 22128,
      "name": "floatBufferViews",
      "target": 34963
    },
    {
      "buffer": 0,
      "byteLength": 20848,
      "byteOffset": 22128,
      "byteStride": 8,
      "name": "floatBufferViews",
      "target": 34962
    },
    {
      "buffer": 0,
      "byteLength": 62544,
      "byteOffset": 42976,
      "byteStride": 12,
      "name": "floatBufferViews",
      "target": 34962
    }
  ],
  "buffers": [
    {
      "byteLength": 105520,
      "uri": "scene.bin"
    }
  ],
  "images": [
    {
      "uri": "textures/mat_house_01_baseColor.png"
    },
    {
      "uri": "textures/aiStandardSurface1_baseColor.png"
    }
  ],
  "materials": [
    {
      "doubleSided": true,
      "name": "mat_house_01",
      "pbrMetallicRoughness": {
        "baseColorTexture": {
          "index": 0
        },
        "metallicFactor": 0.0
      }
    },
    {
      "doubleSided": true,
      "name": "aiStandardSurface1",
      "pbrMetallicRoughness": {
        "baseColorTexture": {
          "index": 1
        },
        "metallicFactor": 0.0,
        "roughnessFactor": 0.6
      }
    }
  ],
  "meshes": [
    {
      "name": "env_prop_house_01_mat_house_01_0",
      "primitives": [
        {
          "attributes": {
            "NORMAL": 1,
            "POSITION": 0,
            "TEXCOORD_0": 2
          },
          "indices": 3,
          "material": 0,
          "mode": 4
        }
      ]
    },
    {
      "name": "env_prop_rainpipe_mat_house_01_0",
      "primitives": [
        {
          "attributes": {
            "NORMAL": 5,
            "POSITION": 4,
            "TEXCOORD_0": 6
          },
          "indices": 7,
          "material": 0,
          "mode": 4
        }
      ]
    },
    {
      "name": "env_plant_02_aiStandardSurface1_0",
      "primitives": [
        {
          "attributes": {
            "NORMAL": 9,
            "POSITION": 8,
            "TEXCOORD_0": 10
          },
          "indices": 11,
          "material": 1,
          "mode": 4
        }
      ]
    },
    {
      "name": "env_plant_03_aiStandardSurface1_0",
      "primitives": [
        {
          "attributes": {
            "NORMAL": 13,
            "POSITION": 12,
            "TEXCOORD_0": 14
          },
          "indices": 15,
          "material": 1,
          "mode": 4
        }
      ]
    },
    {
      "name": "env_plant_04_aiStandardSurface1_0",
      "primitives": [
        {
          "attributes": {
            "NORMAL": 17,
            "POSITION": 16,
            "TEXCOORD_0": 18
          },
          "indices": 19,
          "material": 1,
          "mode": 4
        }
      ]
    }
  ],
  "nodes": [
    {
      "children": [
        1
      ],
      "matrix": [
        1.0,
        0.0,
        0.0,
        0.0,
        0.0,
        2.220446049250313e-16,
        -1.0,
        0.0,
        0.0,
        1.0,
        2.220446049250313e-16,
        0.0,
        0.0,
        0.0,
        0.0,
        1.0
      ],
      "name": "Sketchfab_model"
    },
    {
      "children": [
        2
      ],
      "matrix": [
        1.0,
        0.0,
        0.0,
        0.0,
        0.0,
        0.0,
        1.0,
        0.0,
        0.0,
        -1.0,
        0.0,
        0.0,
        0.0,
        0.0,
        0.0,
        1.0
      ],
      "name": "6ddc2a7cc81b476f8458b3772f3a7d0f.fbx"
    },
    {
      "children": [
        3
      ],
      "name": "RootNode"
    },
    {
      "children": [
        4,
        5,
        7,
        9,
        11
      ],
      "matrix": [
        0.009999999776482582,
        0.0,
        0.0,
        0.0,
        0.0,
        0.009999999776482582,
        0.0,
        0.0,
        0.0,
        0.0,
        0.009999999776482582,
        0.0,
        0.0,
        1.5,
        0.0,
        1.0
      ],
      "name": "env_prop_house_01"
    },
    {
      "mesh": 0,
      "name": "env_prop_house_01_mat_house_01_0"
    },
    {
      "children": [
        6
      ],
      "matrix": [
        0.0252748541533947,
        0.0,
        0.0,
        0.0,
        0.0,
        1.9790960550308228,
        0.0,
        0.0,
        0.0,
        0.0,
        0.0252748541533947,
        0.0,
        86.00446319580078,
        -1.56778883934021,
        103.28726959228516,
        1.0
      ],
      "name": "env_prop_rainpipe"
    },
    {
      "mesh": 1,
      "name": "env_prop_rainpipe_mat_house_01_0"
    },
    {
      "children": [
        8
      ],
      "matrix": [
        0.11995173712092053,
        0.0,
        -0.9965979243603963,
        0.0,
        0.0,
        1.0037907361984253,
        0.0,
        0.0,
        0.9965979243603963,
        0.0,
        0.11995173712092053,
        0.0,
        -7.749837398529053,
        141.46746826171875,
        -62.08998107910156,
        1.0
      ],
      "name": "env_plant_02"
    },
    {
      "mesh": 2,
      "name": "env_plant_02_aiStandardSurface1_0"
    },
    {
      "children": [
        10
      ],
      "matrix": [
        0.5976909903074282,
        7.319603581592035e-17,
        0.5011640803902141,
        -0.0,
        -9.497381913476323e-17,
        0.7755200862884525,
        -0.0,
        -0.0,
        0.49828567323712697,
        6.102239547908314e-17,
        -0.594258186383218,
        -0.0,
        29.441577911376953,
        140.6862335205078,
        26.83208656311035,
        1.0
      ],
      "name": "env_plant_03"
    },
    {
      "mesh": 3,
      "name": "env_plant_03_aiStandardSurface1_0"
    },
    {
      "children": [
        12
      ],
      "matrix": [
        -0.10514121225626412,
        -0.31730893234388297,
        -0.43862077631024626,
        -0.0,
        -0.5376523467844279,
        0.0821849894903043,
        0.06942532111597774,
        -0.0,
        -0.025420367079973354,
        -0.44086077506600635,
        0.325022884822131,
        -0.0,
        31.212169647216797,
        150.0973663330078,
        -49.247467041015625,
        1.0
      ],
      "name": "env_plant_04"
    },
    {
      "mesh": 4,
      "name": "env_plant_04_aiStandardSurface1_0"
    }
  ],
  "samplers": [
    {
      "magFilter": 9729,
      "minFilter": 9987,
      "wrapS": 10497,
      "wrapT": 10497
    }
  ],
  "scene": 0,
  "scenes": [
    {
      "name": "Sketchfab_Scene",
      "nodes": [
        0
      ]
    }
  ],
  "textures": [
    {
      "sampler": 0,
      "source": 0
    },
    {
      "sampler": 0,
      "source": 1
    }
  ]
}
