{
  "accessors": [
    {
      "bufferView": 2,
      "componentType": 5126,
      "count": 1304,
      "max": [
        15.819221496582031,
        48.107566833496094,
        12.035974502563477
      ],
      "min": [
        -15.819221496582031,
        20.055442810058594,
        -14.959338188171387
      ],
      "type": "VEC3"
    },
    {
      "bufferView": 2,
      "byteOffset": 15648,
      "componentType": 5126,
      "count": 1304,
      "max": [
        0.9998161792755127,
        0.999979555606842,
        0.9999955892562866
      ],
      "min": [
        -0.9998162388801575,
        -0.9999960064888,
        -0.9990317821502686
      ],
      "type": "VEC3"
    },
    {
      "bufferView": 1,
      "componentType": 5126,
      "count": 1304,
      "max": [
        0.9756338596343994,
        0.9716440439224243
      ],
      "min": [
        0.023557662963867188,
        0.018753081560134888
      ],
      "type": "VEC2"
    },
    {
      "bufferView": 0,
      "componentType": 5125,
      "count": 7272,
      "type": "SCALAR"
    },
    {
      "bufferView": 2,
      "byteOffset": 31296,
      "componentType": 5126,
      "count": 3220,
      "max": [
        13.633172988891602,
        20.817468643188477,
        8.010000228881836
      ],
      "min": [
        -13.633172035217285,
        0.0335291251540184,
        -6.177678108215332
      ],
      "type": "VEC3"
    },
    {
      "bufferView": 2,
      "byteOffset": 69936,
      "componentType": 5126,
      "count": 3220,
      "max": [
        0.9997732043266296,
        0.999798059463501,
        0.9991862773895264
      ],
      "min": [
        -0.9997731447219849,
        -1.0,
        -0.9998387098312378
      ],
      "type": "VEC3"
    },
    {
      "bufferView": 1,
      "byteOffset": 10432,
      "componentType": 5126,
      "count": 3220,
      "max": [
        0.9780040979385376,
        0.9825655221939087
      ],
      "min": [
        0.013047589920461178,
        0.012759983539581299
      ],
      "type": "VEC2"
    },
    {
      "bufferView": 0,
      "byteOffset": 29088,
      "componentType": 5125,
      "count": 17352,
      "type": "SCALAR"
    }
  ],
  "asset": {
    "extras": {
      "author": "Ncubate Studios (https://sketchfab.com/VinceFung)",
      "license": "CC-BY-4.0 (http://creativecommons.org/licenses/by/4.0/)",
      "source": "https://sketchfab.com/3d-models/base-mesh-01-7fd03337ae85486192094b506722375c",
      "title": "Base Mesh - 01"
    },
    "generator": "Sketchfab-12.65.0",
    "version": "2.0"
  },
  "bufferViews": [
    {
      "buffer": 0,
      "byteLength": 98496,
      "name": "floatBufferViews",
      "target": 34963
    },
    {
      "buffer": 0,
      "byteLength": 36192,
      "byteOffset": 98496,
      "byteStride": 8,
      "name": "floatBufferViews",
      "target": 34962
    },
    {
      "buffer": 0,
      "byteLength": 108576,
      "byteOffset": 134688,
      "byteStride": 12,
      "name": "floatBufferViews",
      "target": 34962
    }
  ],
  "buffers": [
    {
      "byteLength": 243264,
      "uri": "scene.bin"
    }
  ],
  "materials": [
    {
      "doubleSided": true,
      "name": "rimLightShader",
      "pbrMetallicRoughness": {
        "baseColorFactor": [
          0.25,
          0.25,
          0.25,
          1.0
        ],
        "metallicFactor": 0.26558282770262176
      }
    }
  ],
  "meshes": [
    {
      "name": "Head_rimLightShader_0",
      "primitives": [
        {
          "attributes": {
            "NORMAL": 1,
            "POSITION": 0,
            "TEXCOORD_0": 2
          },
          "indices": 3,
          "material": 0,
          "mode": 4
        }
      ]
    },
    {
      "name": "Body_rimLightShader_0",
      "primitives": [
        {
          "attributes": {
            "NORMAL": 5,
            "POSITION": 4,
            "TEXCOORD_0": 6
          },
          "indices": 7,
          "material": 0,
          "mode": 4
        }
      ]
    }
  ],
  "nodes": [
    {
      "children": [
        1
      ],
      "matrix": [
        1.0,
        0.0,
        0.0,
        0.0,
        0.0,
        2.220446049250313e-16,
        -1.0,
        0.0,
        0.0,
        1.0,
        2.220446049250313e-16,
        0.0,
        0.0,
        0.0,
        0.0,
        1.0
      ],
      "name": "Sketchfab_model"
    },
    {
      "children": [
        2
      ],
      "matrix": [
        1.0,
        0.0,
        0.0,
        0.0,
        0.0,
        0.0,
        1.0,
        0.0,
        0.0,
        -1.0,
        0.0,
        0.0,
        0.0,
        0.0,
        0.0,
        1.0
      ],
      "name": "9f7259e2516b4ede9d4aec7008e5df3e.fbx"
    },
    {
      "children": [
        3,
        5
      ],
      "name": "RootNode"
    },
    {
      "children": [
        4
      ],
      "name": "Head"
    },
    {
      "mesh": 0,
      "name": "Head_rimLightShader_0"
    },
    {
      "children": [
        6
      ],
      "name": "Body"
    },
    {
      "mesh": 1,
      "name": "Body_rimLightShader_0"
    }
  ],
  "scene": 0,
  "scenes": [
    {
      "name": "Sketchfab_Scene",
      "nodes": [
        0
      ]
    }
  ]
}
